<svg width="228" height="101" viewBox="0 0 228 101" fill="none" xmlns="http://www.w3.org/2000/svg">
<path d="M26.0371 75V51.3594H26.5352L42.8379 75H52.6992V29.6777H40.6465V52.9531H40.1484L23.9453 29.6777H13.9844V75H26.0371ZM92.4434 64.8398H73.6504V56.9375H91.2148V47.707H73.6504V39.8379H92.4434V29.6777H60.668V75H92.4434V64.8398ZM118.906 75L125.846 49.002H126.311L133.217 75H145.502L156.791 29.6777H143.211L138.562 57.9668H137.932L131.191 29.6777H120.932L114.191 57.9668H113.594L108.879 29.6777H95.2988L106.588 75H118.906ZM158.584 61.2871C158.65 68.1602 163.133 75.7969 177.709 75.7969C190.592 75.7969 197.066 69.5215 197.066 60.6895C197.066 51.5254 190.725 48.3047 184.383 47.2754L178.373 46.2793C174.621 45.6484 172.396 44.5195 172.396 42.4277C172.396 40.2031 174.156 38.4766 177.908 38.4766C182.158 38.4766 184.15 40.9668 184.25 43.125H196.17C196.137 35.8535 190.193 28.9141 177.908 28.9141C166.918 28.9141 159.381 34.1934 159.381 43.4902C159.381 51.7578 164.793 55.4766 172.031 56.8047L177.775 57.8672C181.959 58.6641 184.217 59.5938 184.217 62.084C184.217 64.2422 182.49 66.0684 178.041 66.0684C173.426 66.0684 171.035 63.6445 170.936 61.2871H158.584Z" fill="white"/>
<path d="M209.946 77.291H215.835V74.5811H209.946V68.502H207.207V74.5811H201.348V77.291H207.207V83.6484H209.946V77.291Z" fill="white"/>
</svg>
